<svg width="227" height="459" viewBox="0 0 227 459" fill="none" xmlns="http://www.w3.org/2000/svg">
<path d="M2.19629 35.5434C2.19629 15.9133 18.0196 0 37.5386 0H188.658C208.177 0 224 15.9133 224 35.5434V423.457C224 443.087 208.177 459 188.658 459H37.5386C18.0196 459 2.19629 443.087 2.19629 423.457V35.5434Z" fill="#C2C9D2"/>
<path d="M57.5636 11.8741C57.5636 10.1789 56.1915 8.80469 54.499 8.80469H41.6273C24.7016 8.80469 10.9805 22.5471 10.9805 39.4993V419.499C10.9805 436.451 24.7016 450.193 41.6273 450.193H185.667C202.593 450.193 216.314 436.451 216.314 419.499V39.4993C216.314 22.5471 202.593 8.80469 185.667 8.80469H172.795C171.103 8.80469 169.731 10.1789 169.731 11.8741C169.731 18.655 164.242 24.152 157.472 24.152H69.8223C63.052 24.152 57.5636 18.655 57.5636 11.8741Z" fill="#F1F5FB"/>
<path d="M94.4316 15.9596C94.4316 15.0478 95.2744 14.3086 96.3139 14.3086H118.902C119.942 14.3086 120.784 15.0478 120.784 15.9596C120.784 16.8715 119.942 17.6107 118.902 17.6107H96.314C95.2744 17.6107 94.4316 16.8715 94.4316 15.9596Z" fill="#A4AFBB"/>
<path d="M132.863 15.4116C132.863 17.2353 131.88 18.7137 130.667 18.7137C129.454 18.7137 128.471 17.2353 128.471 15.4116C128.471 13.5878 129.454 12.1094 130.667 12.1094C131.88 12.1094 132.863 13.5878 132.863 15.4116Z" fill="#A4AFBB"/>
<path d="M0 70.5821C0 69.8982 0.655479 69.3438 1.46405 69.3438H2.19608V89.1568H1.46405C0.655479 89.1568 0 88.6023 0 87.9184V70.5821Z" fill="#A4AFBB"/>
<path d="M226.196 115.689C226.196 115.019 225.541 114.477 224.732 114.477H224V168.412H224.732C225.541 168.412 226.196 167.869 226.196 167.2V115.689Z" fill="#A4AFBB"/>
<path d="M0 104.687C0 104.014 0.655479 103.469 1.46405 103.469H2.19608V137.591H1.46405C0.655479 137.591 0 137.045 0 136.372V104.687Z" fill="#A4AFBB"/>
<path d="M0 147.613C0 146.94 0.655479 146.395 1.46405 146.395H2.19608V180.517H1.46405C0.655479 180.517 0 179.971 0 179.298V147.613Z" fill="#A4AFBB"/>
<path d="M84 179C84 177.343 85.3431 176 87 176H141C142.657 176 144 177.343 144 179V273.267C144 276.123 140.388 277.363 138.633 275.111L116.367 246.527C115.166 244.985 112.834 244.985 111.633 246.527L89.3667 275.111C87.6119 277.363 84 276.123 84 273.267V179Z" fill="#FFC52F"/>
</svg>
